<svg width="20" height="20" viewBox="0 0 20 20" fill="none" xmlns="http://www.w3.org/2000/svg">
<g id="arrow" clip-path="url(#clip0_315_3538)">
<path id="Vector" d="M15.4782 19.507C15.3232 19.6632 15.1389 19.7872 14.9358 19.8718C14.7327 19.9564 14.5148 20 14.2948 20C14.0748 20 13.857 19.9564 13.6539 19.8718C13.4508 19.7872 13.2664 19.6632 13.1115 19.507L4.77815 11.1737C4.62194 11.0187 4.49795 10.8344 4.41333 10.6313C4.32872 10.4282 4.28516 10.2104 4.28516 9.99034C4.28516 9.77032 4.32872 9.55247 4.41333 9.34937C4.49795 9.14628 4.62194 8.96194 4.77815 8.807L13.1115 0.473671C13.2664 0.317457 13.4508 0.193462 13.6539 0.108849C13.857 0.0242348 14.0748 -0.0193272 14.2948 -0.0193272C14.5148 -0.0193272 14.7327 0.0242348 14.9358 0.108849C15.1389 0.193462 15.3232 0.317457 15.4782 0.473671C15.6344 0.628609 15.7584 0.812943 15.843 1.01604C15.9276 1.21914 15.9712 1.43698 15.9712 1.657C15.9712 1.87702 15.9276 2.09487 15.843 2.29796C15.7584 2.50106 15.6344 2.6854 15.4782 2.84033L8.31149 9.99034L15.4782 17.1403C15.6344 17.2953 15.7584 17.4796 15.843 17.6827C15.9276 17.8858 15.9712 18.1036 15.9712 18.3237C15.9712 18.5437 15.9276 18.7615 15.843 18.9646C15.7584 19.1677 15.6344 19.3521 15.4782 19.507Z" fill="white"/>
</g>
<defs>
<clipPath id="clip0_315_3538">
<rect width="20" height="20" fill="white" transform="matrix(1 0 0 -1 0 20)"/>
</clipPath>
</defs>
</svg>
