<svg width="21" height="20" viewBox="0 0 21 20" fill="none" xmlns="http://www.w3.org/2000/svg">
<g id="outside">
<g id="Vector">
<path fill-rule="evenodd" clip-rule="evenodd" d="M8.5 1C8.5 1.55228 8.05228 2 7.5 2H3.5C3.23478 2 2.98043 2.10536 2.79289 2.29289C2.60536 2.48043 2.5 2.73478 2.5 3V17C2.5 17.2652 2.60536 17.5196 2.79289 17.7071C2.98043 17.8946 3.23478 18 3.5 18H7.5C8.05228 18 8.5 18.4477 8.5 19C8.5 19.5523 8.05228 20 7.5 20H3.5C2.70435 20 1.94129 19.6839 1.37868 19.1213C0.816071 18.5587 0.5 17.7957 0.5 17V3C0.5 2.20435 0.816071 1.44129 1.37868 0.878679C1.94129 0.316071 2.70435 0 3.5 0H7.5C8.05228 0 8.5 0.447714 8.5 1Z" fill="#131313"/>
<path fill-rule="evenodd" clip-rule="evenodd" d="M20.2071 9.29289C20.5976 9.68342 20.5976 10.3166 20.2071 10.7071L15.2071 15.7071C14.8166 16.0976 14.1834 16.0976 13.7929 15.7071C13.4024 15.3166 13.4024 14.6834 13.7929 14.2929L18.0858 10L13.7929 5.70711C13.4024 5.31658 13.4024 4.68342 13.7929 4.29289C14.1834 3.90237 14.8166 3.90237 15.2071 4.29289L20.2071 9.29289Z" fill="#131313"/>
<path fill-rule="evenodd" clip-rule="evenodd" d="M20.5 10C20.5 10.5523 20.0523 11 19.5 11H7.5C6.94771 11 6.5 10.5523 6.5 10C6.5 9.44771 6.94771 9 7.5 9H19.5C20.0523 9 20.5 9.44771 20.5 10Z" fill="#131313"/>
</g>
</g>
</svg>
