<svg width="20" height="20" viewBox="0 0 20 20" fill="none" xmlns="http://www.w3.org/2000/svg">
<g id="majesticons:calendar-line">
<path id="Vector" d="M3.33301 7.5V15.8333C3.33301 16.2754 3.5086 16.6993 3.82116 17.0118C4.13372 17.3244 4.55765 17.5 4.99967 17.5H14.9997C15.4417 17.5 15.8656 17.3244 16.1782 17.0118C16.4907 16.6993 16.6663 16.2754 16.6663 15.8333V7.5M3.33301 7.5V5.83333C3.33301 5.39131 3.5086 4.96738 3.82116 4.65482C4.13372 4.34226 4.55765 4.16667 4.99967 4.16667H6.66634M3.33301 7.5H16.6663M16.6663 7.5V5.83333C16.6663 5.39131 16.4907 4.96738 16.1782 4.65482C15.8656 4.34226 15.4417 4.16667 14.9997 4.16667H13.333M6.66634 4.16667H13.333M6.66634 4.16667V2.5M13.333 4.16667V2.5" stroke="#131313" stroke-width="1.66667" stroke-linecap="round" stroke-linejoin="round"/>
</g>
</svg>
