<svg width="48" height="48" viewBox="0 0 48 48" fill="none" xmlns="http://www.w3.org/2000/svg">
<g id="material-symbols-light:photo-camera-outline">
<path id="Vector" d="M24 33.46C26.0893 33.46 27.856 32.74 29.3 31.3C30.74 29.856 31.46 28.0893 31.46 26C31.46 23.9107 30.74 22.144 29.3 20.7C27.8547 19.26 26.088 18.54 24 18.54C21.912 18.54 20.1453 19.26 18.7 20.7C17.26 22.144 16.54 23.9107 16.54 26C16.54 28.0893 17.2607 29.856 18.702 31.3C20.1447 32.74 21.9107 33.46 24 33.46ZM24 31.46C22.4467 31.46 21.148 30.9387 20.104 29.896C19.06 28.8533 18.538 27.5547 18.538 26C18.538 24.4467 19.06 23.148 20.104 22.104C21.148 21.06 22.4467 20.538 24 20.538C25.5533 20.538 26.852 21.06 27.896 22.104C28.94 23.148 29.462 24.4467 29.462 26C29.462 27.5533 28.94 28.852 27.896 29.896C26.852 30.94 25.5533 31.462 24 31.462M9.23 40C8.31 40 7.542 39.692 6.926 39.076C6.30867 38.4587 6 37.69 6 36.77V15.23C6 14.31 6.30867 13.542 6.926 12.926C7.542 12.3087 8.31 12 9.23 12H15.146L18.846 8H29.154L32.854 12H38.77C39.69 12 40.458 12.3087 41.074 12.926C41.6913 13.542 42 14.31 42 15.23V36.77C42 37.69 41.692 38.458 41.076 39.074C40.4587 39.6913 39.69 40 38.77 40H9.23ZM9.23 38H38.77C39.1287 38 39.4233 37.8847 39.654 37.654C39.8847 37.4233 40 37.1287 40 36.77V15.23C40 14.8713 39.8847 14.5767 39.654 14.346C39.4233 14.1153 39.1287 14 38.77 14H31.976L28.288 10H19.712L16.024 14H9.23C8.87133 14 8.57667 14.1153 8.346 14.346C8.11533 14.5767 8 14.8713 8 15.23V36.77C8 37.1287 8.11533 37.4233 8.346 37.654C8.57667 37.8847 8.87133 38 9.23 38Z" fill="#2F2F37"/>
</g>
</svg>
