<svg width="12" height="12" viewBox="0 0 12 12" fill="none" xmlns="http://www.w3.org/2000/svg">
<g id="ph:copyright-thin">
<path id="Vector" d="M6 1.3125C5.0729 1.3125 4.16662 1.58742 3.39577 2.10249C2.62491 2.61756 2.0241 3.34964 1.66932 4.20617C1.31453 5.0627 1.2217 6.0052 1.40257 6.91449C1.58344 7.82377 2.02988 8.659 2.68544 9.31456C3.341 9.97012 4.17623 10.4166 5.08552 10.5974C5.9948 10.7783 6.9373 10.6855 7.79383 10.3307C8.65036 9.9759 9.38245 9.37509 9.89752 8.60424C10.4126 7.83338 10.6875 6.9271 10.6875 6C10.6861 4.75722 10.1918 3.56573 9.31306 2.68694C8.43428 1.80816 7.24279 1.31386 6 1.3125ZM6 10.3125C5.14707 10.3125 4.31329 10.0596 3.60411 9.58571C2.89492 9.11185 2.34217 8.43833 2.01577 7.65032C1.68937 6.86232 1.60397 5.99522 1.77037 5.15867C1.93676 4.32213 2.34749 3.55372 2.9506 2.9506C3.55372 2.34749 4.32213 1.93676 5.15868 1.77036C5.99522 1.60396 6.86232 1.68937 7.65032 2.01577C8.43833 2.34217 9.11185 2.89492 9.58572 3.6041C10.0596 4.31329 10.3125 5.14707 10.3125 6C10.3113 7.14337 9.85651 8.23955 9.04803 9.04803C8.23955 9.85651 7.14337 10.3113 6 10.3125ZM7.65 7.23797C7.3902 7.58416 7.02808 7.83985 6.6149 7.96881C6.20173 8.09778 5.75846 8.0935 5.34786 7.95657C4.93725 7.81963 4.58014 7.557 4.32708 7.20585C4.07402 6.8547 3.93785 6.43283 3.93785 6C3.93785 5.56717 4.07402 5.1453 4.32708 4.79415C4.58014 4.443 4.93725 4.18037 5.34786 4.04343C5.75846 3.9065 6.20173 3.90222 6.6149 4.03118C7.02808 4.16015 7.3902 4.41584 7.65 4.76203C7.66481 4.78173 7.67559 4.80415 7.68173 4.82802C7.68787 4.85188 7.68924 4.87672 7.68578 4.90112C7.68232 4.92551 7.67409 4.94899 7.66156 4.97021C7.64902 4.99142 7.63243 5.00996 7.61274 5.02477C7.59304 5.03957 7.57062 5.05035 7.54675 5.05649C7.52289 5.06263 7.49805 5.06401 7.47365 5.06055C7.44925 5.05709 7.42578 5.04885 7.40456 5.03632C7.38335 5.02379 7.36481 5.0072 7.35 4.9875C7.1375 4.70416 6.84123 4.49486 6.50316 4.38926C6.16509 4.28365 5.80237 4.2871 5.46637 4.3991C5.13037 4.5111 4.83812 4.72598 4.63103 5.0133C4.42394 5.30062 4.3125 5.64582 4.3125 6C4.3125 6.35418 4.42394 6.69938 4.63103 6.9867C4.83812 7.27402 5.13037 7.4889 5.46637 7.6009C5.80237 7.7129 6.16509 7.71635 6.50316 7.61074C6.84123 7.50514 7.1375 7.29584 7.35 7.0125C7.3799 6.97272 7.42438 6.94644 7.47365 6.93945C7.52292 6.93246 7.57295 6.94533 7.61274 6.97523C7.65252 7.00513 7.67879 7.04961 7.68578 7.09888C7.69277 7.14816 7.6799 7.19819 7.65 7.23797Z" fill="#131313"/>
</g>
</svg>
