<svg width="20" height="20" viewBox="0 0 20 20" fill="none" xmlns="http://www.w3.org/2000/svg">
<g id="mdi:court-hammer">
<path id="Vector" d="M1.9166 16.9L9.9166 8.9L8.74994 7.71667L8.14993 8.30833C8.07284 8.38559 7.98127 8.44688 7.88045 8.4887C7.77964 8.53051 7.67158 8.55204 7.56243 8.55204C7.45329 8.55204 7.34523 8.53051 7.24441 8.4887C7.1436 8.44688 7.05203 8.38559 6.97493 8.30833L6.38327 7.71667C6.30601 7.63957 6.24473 7.548 6.20291 7.44719C6.16109 7.34638 6.13956 7.23831 6.13956 7.12917C6.13956 7.02003 6.16109 6.91196 6.20291 6.81115C6.24473 6.71034 6.30601 6.61876 6.38327 6.54167L11.0999 1.825C11.177 1.74775 11.2686 1.68646 11.3694 1.64464C11.4702 1.60282 11.5783 1.5813 11.6874 1.5813C11.7966 1.5813 11.9046 1.60282 12.0055 1.64464C12.1063 1.68646 12.1978 1.74775 12.2749 1.825L12.8666 2.41667C13.1916 2.74167 13.1916 3.26667 12.8666 3.59167L12.2749 4.16667L13.4583 5.35834C13.5354 5.28108 13.6269 5.21979 13.7277 5.17797C13.8286 5.13616 13.9366 5.11463 14.0458 5.11463C14.1549 5.11463 14.263 5.13616 14.3638 5.17797C14.4646 5.21979 14.5562 5.28108 14.6333 5.35834C14.9583 5.68333 14.9583 6.21667 14.6333 6.54167L15.8083 7.71667L16.3999 7.125C16.7249 6.8 17.2583 6.8 17.5833 7.125L18.1666 7.71667C18.4916 8.04167 18.4916 8.575 18.1666 8.9L13.4583 13.6083C13.1333 13.9333 12.5999 13.9333 12.2749 13.6083L11.6916 13.025C11.6125 12.9481 11.5496 12.8561 11.5066 12.7545C11.4637 12.6529 11.4415 12.5437 11.4415 12.4333C11.4415 12.323 11.4637 12.2138 11.5066 12.1122C11.5496 12.0105 11.6125 11.9186 11.6916 11.8417L12.2749 11.25L11.0999 10.075L3.0916 18.0833C3.01451 18.1606 2.92293 18.2219 2.82212 18.2637C2.72131 18.3055 2.61324 18.327 2.5041 18.327C2.39496 18.327 2.28689 18.3055 2.18608 18.2637C2.08527 18.2219 1.9937 18.1606 1.9166 18.0833C1.5916 17.7583 1.5916 17.225 1.9166 16.9ZM16.6666 15.8333C17.1086 15.8333 17.5326 16.0089 17.8451 16.3215C18.1577 16.634 18.3333 17.058 18.3333 17.5V18.3333H9.99994V17.5C9.99994 17.058 10.1755 16.634 10.4881 16.3215C10.8007 16.0089 11.2246 15.8333 11.6666 15.8333H16.6666Z" stroke="#131313"/>
</g>
</svg>
