<svg width="20" height="20" viewBox="0 0 20 20" fill="none" xmlns="http://www.w3.org/2000/svg">
<g id="ic:baseline-account-circle">
<path id="Vector" d="M10.0003 1.66666C5.40033 1.66666 1.66699 5.39999 1.66699 9.99999C1.66699 14.6 5.40033 18.3333 10.0003 18.3333C14.6003 18.3333 18.3337 14.6 18.3337 9.99999C18.3337 5.39999 14.6003 1.66666 10.0003 1.66666ZM10.0003 4.99999C11.6087 4.99999 12.917 6.30832 12.917 7.91666C12.917 9.52499 11.6087 10.8333 10.0003 10.8333C8.39199 10.8333 7.08366 9.52499 7.08366 7.91666C7.08366 6.30832 8.39199 4.99999 10.0003 4.99999ZM10.0003 16.6667C8.30866 16.6667 6.30866 15.9833 4.88366 14.2667C6.34333 13.1214 8.14501 12.499 10.0003 12.499C11.8556 12.499 13.6573 13.1214 15.117 14.2667C13.692 15.9833 11.692 16.6667 10.0003 16.6667Z" fill="#131313"/>
</g>
</svg>
