<svg width="21" height="20" viewBox="0 0 21 20" fill="none" xmlns="http://www.w3.org/2000/svg">
<g id="ic:baseline-search" clip-path="url(#clip0_1_8182)">
<path id="Vector" d="M14.7939 12.9497H13.8905L13.5703 12.6564C14.7297 11.3789 15.3669 9.74793 15.3656 8.06118C15.3656 6.66461 14.9297 5.2994 14.113 4.1382C13.2963 2.977 12.1354 2.07195 10.7772 1.5375C9.41907 1.00306 7.92457 0.863225 6.48275 1.13568C5.04092 1.40814 3.71652 2.08065 2.67702 3.06817C1.63753 4.0557 0.92962 5.31388 0.642823 6.68361C0.356026 8.05335 0.503221 9.47311 1.06579 10.7634C1.62837 12.0536 2.58105 13.1564 3.80337 13.9323C5.02569 14.7082 6.46275 15.1224 7.93282 15.1224C9.77387 15.1224 11.4663 14.4814 12.7699 13.4168L13.0786 13.721V14.5792L18.7962 20L20.5 18.3814L14.7939 12.9497ZM7.93282 12.9497C5.08548 12.9497 2.78702 10.7662 2.78702 8.06118C2.78702 5.35621 5.08548 3.17267 7.93282 3.17267C10.7802 3.17267 13.0786 5.35621 13.0786 8.06118C13.0786 10.7662 10.7802 12.9497 7.93282 12.9497Z" fill="white"/>
</g>
<defs>
<clipPath id="clip0_1_8182">
<rect width="20" height="20" fill="white" transform="translate(0.5)"/>
</clipPath>
</defs>
</svg>
