<svg width="20" height="20" viewBox="0 0 20 20" fill="none" xmlns="http://www.w3.org/2000/svg">
<g id="ic:baseline-search">
<path id="Vector" d="M14.2939 12.9497H13.3905L13.0703 12.6564C14.2297 11.3789 14.8669 9.74793 14.8656 8.06118C14.8656 6.66461 14.4297 5.2994 13.613 4.1382C12.7963 2.977 11.6354 2.07195 10.2772 1.5375C8.91907 1.00306 7.42457 0.863225 5.98275 1.13568C4.54092 1.40814 3.21652 2.08065 2.17702 3.06817C1.13753 4.0557 0.42962 5.31388 0.142823 6.68361C-0.143974 8.05335 0.00322052 9.47311 0.565793 10.7634C1.12837 12.0536 2.08105 13.1564 3.30337 13.9323C4.52569 14.7082 5.96275 15.1224 7.43282 15.1224C9.27387 15.1224 10.9663 14.4814 12.2699 13.4168L12.5786 13.721V14.5792L18.2962 20L20 18.3814L14.2939 12.9497ZM7.43282 12.9497C4.58548 12.9497 2.28702 10.7662 2.28702 8.06118C2.28702 5.35621 4.58548 3.17267 7.43282 3.17267C10.2802 3.17267 12.5786 5.35621 12.5786 8.06118C12.5786 10.7662 10.2802 12.9497 7.43282 12.9497Z" fill="#131313"/>
</g>
</svg>
