<svg width="20" height="20" viewBox="0 0 20 20" fill="none" xmlns="http://www.w3.org/2000/svg">
<g id="ic:outline-sell">
<path id="Vector" d="M10.4624 2.46412L17.5251 9.52988C18.157 10.162 18.157 11.1703 17.5331 11.7944L11.7982 17.5319C11.1743 18.156 10.1585 18.156 9.53459 17.5319L2.47191 10.4661C2.16797 10.17 2 9.76194 2 9.33783V3.6004C2 2.72018 2.71986 2 3.5997 2H9.33462C9.75854 2 10.1665 2.16804 10.4624 2.46412Z" stroke="black"/>
<path id="Vector_2" d="M5 6C5.55228 6 6 5.55228 6 5C6 4.44772 5.55228 4 5 4C4.44772 4 4 4.44772 4 5C4 5.55228 4.44772 6 5 6Z" fill="#131313"/>
</g>
</svg>
